<svg width="19" height="18" viewBox="0 0 19 18" fill="none" xmlns="http://www.w3.org/2000/svg">
    <path d="M8.38685 17.6444L0.335492 9.8222C0.213502 9.70368 0.126889 9.57529 0.0756527 9.43702C0.0244169 9.29874 -0.000794207 9.1506 1.90611e-05 8.99257C1.90611e-05 8.83455 0.0256373 8.6864 0.0768731 8.54813C0.128109 8.40985 0.214315 8.28146 0.335492 8.16294L8.38685 0.340697C8.6105 0.123413 8.89026 0.0100303 9.22614 0.00054877C9.56202 -0.00893273 9.85154 0.10445 10.0947 0.340697C10.3387 0.557982 10.466 0.829785 10.4765 1.15611C10.4871 1.48243 10.37 1.76371 10.1252 1.99996L4.14769 7.80738H17.7801C18.1257 7.80738 18.4157 7.92116 18.6499 8.14872C18.8841 8.37627 19.0008 8.65756 19 8.99257C19 9.32837 18.8833 9.61005 18.6499 9.83761C18.4165 10.0652 18.1265 10.1785 17.7801 10.1778H4.14769L10.1252 15.9852C10.3489 16.2025 10.466 16.479 10.4765 16.8148C10.4871 17.1506 10.37 17.4272 10.1252 17.6444C9.90156 17.8815 9.61691 18 9.27128 18C8.92564 18 8.63083 17.8815 8.38685 17.6444Z" fill="currentColor"/>
</svg>
