<svg width="12" height="15" viewBox="0 0 12 15" fill="none" xmlns="http://www.w3.org/2000/svg">
<path d="M5.625 0C2.51859 0 0 2.51859 0 5.625C0 6.8482 0.401016 7.97063 1.06758 8.88984C1.07953 8.91188 1.08141 8.93649 1.095 8.95758L4.845 14.5826C5.01891 14.8434 5.31188 15 5.625 15C5.93813 15 6.23109 14.8434 6.405 14.5826L10.155 8.95758C10.1688 8.93649 10.1705 8.91188 10.1824 8.88984C10.849 7.97063 11.25 6.8482 11.25 5.625C11.25 2.51859 8.73141 0 5.625 0ZM5.625 7.5C4.58953 7.5 3.75 6.66047 3.75 5.625C3.75 4.58953 4.58953 3.75 5.625 3.75C6.66047 3.75 7.5 4.58953 7.5 5.625C7.5 6.66047 6.66047 7.5 5.625 7.5Z" fill="#C7C7C7"/>
</svg>
