<svg width="20" height="20" viewBox="0 0 20 20" fill="none" xmlns="http://www.w3.org/2000/svg">
<path fill-rule="evenodd" clip-rule="evenodd" d="M17.7239 9.33325H5.99995C5.63195 9.33325 5.33329 9.63192 5.33329 9.99992C5.33329 10.3679 5.63195 10.6666 5.99995 10.6666H17.7239L14.8619 13.5286C14.6019 13.7886 14.6019 14.2112 14.8619 14.4712C15.1219 14.7312 15.5445 14.7312 15.8045 14.4712L19.8045 10.4712C20.0652 10.2112 20.0652 9.78858 19.8045 9.52859L15.8045 5.52862C15.5445 5.26862 15.1219 5.26862 14.8619 5.52862C14.6019 5.78862 14.6019 6.21128 14.8619 6.47128L17.7239 9.33325Z" fill="#6DD5B3"/>
<path fill-rule="evenodd" clip-rule="evenodd" d="M11.9999 4.66663V1.99998C11.9999 0.895326 11.1046 0 9.99992 0H1.99998C0.895326 0 0 0.895326 0 1.99998V17.9998C0 19.1045 0.895326 19.9998 1.99998 19.9998H9.99992C11.1046 19.9998 11.9999 19.1045 11.9999 17.9998V15.3332C11.9999 14.9652 11.7012 14.6665 11.3332 14.6665C10.9652 14.6665 10.6666 14.9652 10.6666 15.3332V17.9998C10.6666 18.3678 10.3679 18.6665 9.99992 18.6665H1.99998C1.63199 18.6665 1.33332 18.3678 1.33332 17.9998V1.99998C1.33332 1.63199 1.63199 1.33332 1.99998 1.33332H9.99992C10.3679 1.33332 10.6666 1.63199 10.6666 1.99998V4.66663C10.6666 5.03462 10.9652 5.33329 11.3332 5.33329C11.7012 5.33329 11.9999 5.03462 11.9999 4.66663Z" fill="#6DD5B3"/>
</svg>
