<svg width="80" height="90" viewBox="0 0 80 90" fill="none" xmlns="http://www.w3.org/2000/svg">
<g filter="url(#filter0_d_20_16)">
<mask id="path-1-inside-1_20_16" fill="white">
<path fill-rule="evenodd" clip-rule="evenodd" d="M25.0694 50.7743C28.4473 55.769 33.5575 61.1775 40.4 67C47.2425 61.1775 52.3535 55.769 55.7332 50.7743C59.111 45.7815 60.8 41.16 60.8 36.91C60.8 30.535 58.7489 25.4562 54.6469 21.6737C50.5464 17.8912 45.7975 16 40.4 16C35.0025 16 30.2536 17.8912 26.1532 21.6737C22.0511 25.4562 20 30.535 20 36.91C20 41.16 21.6898 45.7815 25.0694 50.7743Z"/>
</mask>
<path fill-rule="evenodd" clip-rule="evenodd" d="M25.0694 50.7743C28.4473 55.769 33.5575 61.1775 40.4 67C47.2425 61.1775 52.3535 55.769 55.7332 50.7743C59.111 45.7815 60.8 41.16 60.8 36.91C60.8 30.535 58.7489 25.4562 54.6469 21.6737C50.5464 17.8912 45.7975 16 40.4 16C35.0025 16 30.2536 17.8912 26.1532 21.6737C22.0511 25.4562 20 30.535 20 36.91C20 41.16 21.6898 45.7815 25.0694 50.7743Z" fill="#F38F1E"/>
<path d="M40.4 67L38.7474 68.9421L40.4 70.3483L42.0526 68.9421L40.4 67ZM25.0694 50.7743L27.1817 49.3458L27.1811 49.345L25.0694 50.7743ZM55.7332 50.7743L57.8451 52.2034L57.8452 52.2032L55.7332 50.7743ZM54.6469 21.6737L52.9179 23.5481L52.9182 23.5484L54.6469 21.6737ZM26.1532 21.6737L27.8818 23.5484L27.8822 23.5481L26.1532 21.6737ZM42.0526 65.0579C35.3088 59.3195 30.3838 54.0804 27.1817 49.3458L22.9571 52.2029C26.5108 57.4575 31.8062 63.0355 38.7474 68.9421L42.0526 65.0579ZM53.6212 49.3453C50.4173 54.0802 45.4912 59.3194 38.7474 65.0579L42.0526 68.9421C48.9938 63.0356 54.2898 57.4577 57.8451 52.2034L53.6212 49.3453ZM58.25 36.91C58.25 40.4786 56.8282 44.605 53.6211 49.3455L57.8452 52.2032C61.3939 46.9579 63.35 41.8414 63.35 36.91H58.25ZM52.9182 23.5484C56.4199 26.7773 58.25 31.1354 58.25 36.91H63.35C63.35 29.9346 61.078 24.1352 56.3755 19.7991L52.9182 23.5484ZM40.4 18.55C45.1334 18.55 49.271 20.1839 52.9179 23.5481L56.3759 19.7994C51.8219 15.5986 46.4616 13.45 40.4 13.45V18.55ZM27.8822 23.5481C31.529 20.1839 35.6666 18.55 40.4 18.55V13.45C34.3384 13.45 28.9781 15.5986 24.4241 19.7994L27.8822 23.5481ZM22.55 36.91C22.55 31.1354 24.3801 26.7773 27.8818 23.5484L24.4245 19.7991C19.722 24.1352 17.45 29.9346 17.45 36.91H22.55ZM27.1811 49.345C23.9724 44.6045 22.55 40.4783 22.55 36.91H17.45C17.45 41.8417 19.4072 46.9584 22.9577 52.2037L27.1811 49.345Z" fill="url(#paint0_linear_20_16)" mask="url(#path-1-inside-1_20_16)"/>
</g>
<circle cx="40.4" cy="36.4" r="14.025" fill="white"/>
<path d="M36.575 42.35L38.7 38.95H37.425V36.4L35.3 39.8H36.575V42.35ZM34.45 34.7H39.55V30.45H34.45V34.7ZM40.4 44.05H33.6C33.3592 44.05 33.1572 43.9684 32.994 43.8052C32.8308 43.642 32.7494 43.4403 32.75 43.2V30.45C32.75 29.9825 32.9166 29.5822 33.2498 29.249C33.583 28.9158 33.9831 28.7494 34.45 28.75H39.55C40.0175 28.75 40.4179 28.9166 40.7511 29.2498C41.0843 29.583 41.2506 29.9831 41.25 30.45V36.4H42.3125C42.7233 36.4 43.0741 36.5453 43.3648 36.836C43.6555 37.1267 43.8006 37.4772 43.8 37.8875V41.8187C43.8 42.0596 43.8992 42.2792 44.0975 42.4775C44.2958 42.6758 44.5154 42.775 44.7563 42.775C45.0113 42.775 45.2345 42.6758 45.4261 42.4775C45.6176 42.2792 45.7131 42.0596 45.7125 41.8187V33.85H45.5C45.2592 33.85 45.0572 33.7684 44.894 33.6052C44.7308 33.442 44.6494 33.2403 44.65 33V31.725C44.65 31.6117 44.6925 31.5125 44.7775 31.4275C44.8625 31.3425 44.9617 31.3 45.075 31.3V30.45C45.075 30.3367 45.1175 30.2375 45.2025 30.1525C45.2875 30.0675 45.3867 30.025 45.5 30.025C45.6133 30.025 45.7125 30.0675 45.7975 30.1525C45.8825 30.2375 45.925 30.3367 45.925 30.45V31.3H46.775V30.45C46.775 30.3367 46.8175 30.2375 46.9025 30.1525C46.9875 30.0675 47.0867 30.025 47.2 30.025C47.3133 30.025 47.4125 30.0675 47.4975 30.1525C47.5825 30.2375 47.625 30.3367 47.625 30.45V31.3C47.7383 31.3 47.8375 31.3425 47.9225 31.4275C48.0075 31.5125 48.05 31.6117 48.05 31.725V33C48.05 33.2408 47.9684 33.4429 47.8052 33.6061C47.642 33.7693 47.4403 33.8506 47.2 33.85H46.9875V41.8187C46.9875 42.4137 46.7713 42.9345 46.339 43.381C45.9066 43.8276 45.3793 44.0506 44.7571 44.05C44.1479 44.05 43.6238 43.8267 43.1846 43.3802C42.7454 42.9337 42.5259 42.4132 42.5259 41.8187V37.8875C42.5259 37.8167 42.508 37.7634 42.4723 37.7277C42.4366 37.692 42.3836 37.6744 42.3134 37.675H41.25V43.2C41.25 43.4408 41.1684 43.6428 41.0052 43.806C40.842 43.9692 40.6403 44.0506 40.4 44.05Z" fill="#F38F1E"/>
<defs>
<filter id="filter0_d_20_16" x="0.874998" y="0.699999" width="79.05" height="89.25" filterUnits="userSpaceOnUse" color-interpolation-filters="sRGB">
<feFlood flood-opacity="0" result="BackgroundImageFix"/>
<feColorMatrix in="SourceAlpha" type="matrix" values="0 0 0 0 0 0 0 0 0 0 0 0 0 0 0 0 0 0 127 0" result="hardAlpha"/>
<feOffset dy="3.825"/>
<feGaussianBlur stdDeviation="9.5625"/>
<feComposite in2="hardAlpha" operator="out"/>
<feColorMatrix type="matrix" values="0 0 0 0 0 0 0 0 0 0 0 0 0 0 0 0 0 0 0.25 0"/>
<feBlend mode="normal" in2="BackgroundImageFix" result="effect1_dropShadow_20_16"/>
<feBlend mode="normal" in="SourceGraphic" in2="effect1_dropShadow_20_16" result="shape"/>
</filter>
<linearGradient id="paint0_linear_20_16" x1="40.4" y1="16" x2="40.4" y2="67" gradientUnits="userSpaceOnUse">
<stop stop-color="#DC8421"/>
<stop offset="1" stop-opacity="0"/>
</linearGradient>
</defs>
</svg>
