<svg width="16" height="15" viewBox="0 0 16 15" fill="none" xmlns="http://www.w3.org/2000/svg">
<path d="M7.41152 0.154356C7.51728 -0.0514518 7.81605 -0.0514522 7.92182 0.154356L10.0731 4.34036C10.1152 4.42234 10.1954 4.47892 10.2878 4.4919L15.0875 5.16573C15.324 5.19894 15.4173 5.48597 15.2441 5.64795L11.7804 8.8884C11.711 8.95331 11.6792 9.04808 11.6958 9.14085L12.5144 13.725C12.5552 13.9539 12.3123 14.13 12.1022 14.0239L7.79726 11.8494C7.71529 11.808 7.61805 11.808 7.53607 11.8494L3.23114 14.0239C3.021 14.13 2.77808 13.9539 2.81895 13.725L3.63753 9.14085C3.6541 9.04808 3.62235 8.95331 3.55297 8.8884L0.0891887 5.64794C-0.0839474 5.48597 0.00928705 5.19894 0.245822 5.16573L5.04553 4.4919C5.13797 4.47892 5.21815 4.42234 5.26028 4.34036L7.41152 0.154356Z" fill="#FFB800"/>
</svg>
