<svg width="20" height="20" viewBox="0 0 20 20" fill="none" xmlns="http://www.w3.org/2000/svg">
<path fill-rule="evenodd" clip-rule="evenodd" d="M9.16667 19.1667C9.16667 19.6269 9.53975 20 10 20C10.4602 20 10.8333 19.6269 10.8333 19.1667V18.2922C14.7703 17.9013 17.9013 14.7703 18.2922 10.8333H19.1667C19.6269 10.8333 20 10.4602 20 10C20 9.53975 19.6269 9.16667 19.1667 9.16667H18.2922C17.9013 5.22967 14.7703 2.09867 10.8333 1.70783V0.833334C10.8333 0.373083 10.4602 0 10 0C9.53975 0 9.16667 0.373083 9.16667 0.833334V1.70783C5.22965 2.09867 2.0987 5.22967 1.70782 9.16667H0.833333C0.373096 9.16667 0 9.53975 0 10C-9.93408e-08 10.4602 0.373096 10.8333 0.833333 10.8333H1.70782C2.0987 14.7703 5.22965 17.9013 9.16667 18.2922V19.1667ZM10 3.332C6.31736 3.332 3.33199 6.31733 3.33199 10C3.33199 13.6826 6.31736 16.668 10 16.668C13.6827 16.668 16.668 13.6826 16.668 10C16.668 6.31733 13.6827 3.332 10 3.332Z" fill="#396FFC"/>
<circle cx="10" cy="10" r="3.6" fill="#396FFC"/>
</svg>
