<svg width="25" height="25" viewBox="0 0 25 25" fill="none" xmlns="http://www.w3.org/2000/svg">
<path d="M16.6667 12.5001C16.6667 11.9475 16.8862 11.4176 17.2769 11.0269C17.6676 10.6362 18.1975 10.4167 18.75 10.4167C19.3025 10.4167 19.8324 10.6362 20.2231 11.0269C20.6138 11.4176 20.8333 11.9475 20.8333 12.5001C20.8333 13.0526 20.6138 13.5825 20.2231 13.9732C19.8324 14.3639 19.3025 14.5834 18.75 14.5834C18.1975 14.5834 17.6676 14.3639 17.2769 13.9732C16.8862 13.5825 16.6667 13.0526 16.6667 12.5001ZM10.4167 12.5001C10.4167 11.9475 10.6362 11.4176 11.0269 11.0269C11.4176 10.6362 11.9475 10.4167 12.5 10.4167C13.0525 10.4167 13.5824 10.6362 13.9731 11.0269C14.3638 11.4176 14.5833 11.9475 14.5833 12.5001C14.5833 13.0526 14.3638 13.5825 13.9731 13.9732C13.5824 14.3639 13.0525 14.5834 12.5 14.5834C11.9475 14.5834 11.4176 14.3639 11.0269 13.9732C10.6362 13.5825 10.4167 13.0526 10.4167 12.5001ZM4.16666 12.5001C4.16666 11.9475 4.38616 11.4176 4.77686 11.0269C5.16756 10.6362 5.69746 10.4167 6.25 10.4167C6.80253 10.4167 7.33244 10.6362 7.72314 11.0269C8.11384 11.4176 8.33333 11.9475 8.33333 12.5001C8.33333 13.0526 8.11384 13.5825 7.72314 13.9732C7.33244 14.3639 6.80253 14.5834 6.25 14.5834C5.69746 14.5834 5.16756 14.3639 4.77686 13.9732C4.38616 13.5825 4.16666 13.0526 4.16666 12.5001Z" fill="white"/>
</svg>
