<svg width="20" height="21" viewBox="0 0 20 21" fill="none" xmlns="http://www.w3.org/2000/svg">
<path d="M16.8505 3.66223C16.6844 3.47068 16.5117 3.28537 16.3325 3.10617C14.2287 1.00216 11.3371 -0.408086 8.30079 0.106224C5.92409 0.508851 4.45829 2.30474 4.57812 4.65808C4.6086 5.25505 4.73498 5.84878 4.97724 6.3965C5.25171 7.01683 5.80452 7.45496 6.06555 8.06492C6.62123 9.36406 5.43123 10.2133 4.27769 10.2133C1.26921 10.0479 -0.717965 13.4869 0.244791 16.114C1.11636 18.4922 4.04592 20.1112 6.36045 20.6892C8.99551 21.3471 11.8453 20.9519 14.1941 19.5852C19.7816 16.3342 21.0892 8.55072 16.8505 3.66223ZM8.15073 18.5111C7.30729 18.5111 6.62352 17.8273 6.62352 16.9839C6.62352 16.1404 7.30729 15.4567 8.15073 15.4567C8.99417 15.4567 9.67794 16.1404 9.67794 16.9839C9.67794 17.8274 8.9941 18.5111 8.15073 18.5111ZM11.275 5.24353C11.275 4.40009 11.9587 3.71632 12.8022 3.71632C13.6455 3.71632 14.3293 4.40009 14.3293 5.24353C14.3293 6.08697 13.6455 6.77074 12.8022 6.77074C11.9586 6.77068 11.275 6.08697 11.275 5.24353ZM13.4702 16.6657C12.6268 16.6657 11.9431 15.9819 11.9431 15.1385C11.9431 14.295 12.6268 13.6113 13.4702 13.6113C14.3137 13.6113 14.9974 14.295 14.9974 15.1385C14.9974 15.982 14.3137 16.6657 13.4702 16.6657ZM15.4747 11.5751C14.6312 11.5751 13.9474 10.8914 13.9474 10.0478C13.9474 9.20439 14.6312 8.52062 15.4747 8.52062C16.3181 8.52062 17.0019 9.20439 17.0019 10.0478C17.0019 10.8913 16.3181 11.5751 15.4747 11.5751Z" fill="#87DBC1"/>
</svg>
