<svg width="22" height="22" viewBox="0 0 22 22" fill="none" xmlns="http://www.w3.org/2000/svg">
<path d="M10.8751 0C4.86906 0 6.10352e-05 4.869 6.10352e-05 10.875C6.10352e-05 16.881 4.86906 21.75 10.8751 21.75C16.8811 21.75 21.7501 16.881 21.7501 10.875C21.7501 4.869 16.8811 0 10.8751 0ZM7.31406 1.3905C6.77856 2.35725 6.14481 3.86175 5.72931 5.98875H1.99206C3.15531 3.8895 5.03856 2.244 7.31406 1.3905ZM1.61556 6.74025H5.60256C5.42706 7.84125 5.30931 9.08625 5.29131 10.4992H0.746311C0.796561 9.1635 1.09731 7.89375 1.61556 6.74025ZM0.741061 11.2507H5.29506C5.31231 12.6705 5.43606 13.9065 5.61156 15.0098H1.64406C1.12356 13.8525 0.790561 12.5917 0.741061 11.2507ZM2.00256 15.7612H5.73531C6.15456 17.9093 6.79731 19.4115 7.33581 20.3678C5.05131 19.5173 3.16806 17.8657 2.00256 15.7612ZM10.5466 21.0068C9.75756 20.982 8.99631 20.8575 8.26281 20.6618C7.69656 19.7348 6.96081 18.1395 6.49581 15.7612H10.5466V21.0068ZM10.5466 15.0098H6.36306C6.18756 13.908 6.06606 12.6705 6.04731 11.2507H10.5458V15.0098H10.5466ZM10.5466 10.4992H6.04356C6.06231 9.08475 6.18081 7.842 6.35631 6.74025H10.5466V10.4992ZM10.5466 5.98875H6.48006C6.94131 3.62775 7.67331 2.03925 8.23806 1.095C8.97831 0.8955 9.74931 0.76875 10.5466 0.7425V5.98875ZM21.0023 10.4992H16.5526C16.5338 9.08625 16.4161 7.84125 16.2406 6.74025H20.1196C20.6393 7.896 20.9506 9.16275 21.0023 10.4992ZM19.7416 5.98875H16.1138C15.7021 3.88425 15.0773 2.38875 14.5456 1.42125C16.7708 2.28675 18.5971 3.9225 19.7416 5.98875ZM11.2973 0.74175C12.0976 0.777 12.8738 0.90375 13.6163 1.1115C14.1796 2.05875 14.9063 3.6405 15.3646 5.98875H11.2973V0.74175ZM11.2973 6.74025H15.4876C15.6631 7.842 15.7816 9.08475 15.8003 10.4992H11.2973V6.74025ZM11.2973 11.2507H15.7958C15.7786 12.6705 15.6556 13.908 15.4801 15.0098H11.2973V11.2507ZM11.2973 20.9932V15.7605H15.3488C14.8861 18.1245 14.1556 19.7137 13.5916 20.6445C12.8581 20.8485 12.0878 20.958 11.2973 20.9932ZM14.5253 20.3355C15.0608 19.3785 15.6953 17.886 16.1093 15.7605H19.7356C18.5941 17.835 16.7603 19.473 14.5253 20.3355ZM20.0963 15.0098H16.2323C16.4078 13.9065 16.5308 12.6705 16.5496 11.2507H20.9948C20.9446 12.591 20.6138 13.8518 20.0963 15.0098Z" fill="#6DD5B3"/>
</svg>
