<svg width="21" height="21" viewBox="0 0 21 21" fill="none" xmlns="http://www.w3.org/2000/svg">
<path d="M10.5 6.32263V10.6303L11.8548 11.9765L13.2097 13.3226" stroke="#87DBC1" stroke-width="1.5" stroke-linecap="round" stroke-linejoin="round"/>
<path d="M2.24845 4.97604L1.44077 4.9801C1.44299 5.423 1.80149 5.78149 2.24439 5.78372L2.24845 4.97604ZM4.98576 5.7975C5.43183 5.79974 5.79526 5.43995 5.7975 4.99388C5.79974 4.5478 5.43995 4.18437 4.99388 4.18213L4.98576 5.7975ZM3.04236 2.23062C3.04011 1.78455 2.67669 1.42475 2.23062 1.42699C1.78455 1.42924 1.42475 1.79267 1.427 2.23873L3.04236 2.23062ZM1.61538 10.5C1.61538 10.0539 1.25376 9.69231 0.807692 9.69231C0.36162 9.69231 0 10.0539 0 10.5H1.61538ZM15.7505 19.5948C16.1367 19.3715 16.2686 18.8774 16.0453 18.4912C15.8219 18.1051 15.3278 17.9731 14.9418 18.1966L15.7505 19.5948ZM18.1966 14.9418C17.9731 15.3278 18.1051 15.8219 18.4912 16.0453C18.8774 16.2686 19.3715 16.1367 19.5948 15.7505L18.1966 14.9418ZM3.11266 3.03828C2.79567 3.35213 2.79312 3.86353 3.10698 4.18052C3.42082 4.49751 3.93221 4.50005 4.24921 4.1862L3.11266 3.03828ZM17.8902 3.11C13.7761 -1.00406 7.12796 -1.04571 3.04112 3.04112L4.18337 4.18337C7.62856 0.738177 13.2539 0.758197 16.748 4.25225L17.8902 3.11ZM3.04112 3.04112L1.67733 4.40492L2.81958 5.54717L4.18337 4.18337L3.04112 3.04112ZM2.24439 5.78372L4.98576 5.7975L4.99388 4.18213L2.25251 4.16836L2.24439 5.78372ZM3.05614 4.97198L3.04236 2.23062L1.427 2.23873L1.44077 4.9801L3.05614 4.97198ZM10.5 1.61538C15.4068 1.61538 19.3846 5.59316 19.3846 10.5H21C21 4.70101 16.299 0 10.5 0V1.61538ZM10.5 19.3846C5.59316 19.3846 1.61538 15.4068 1.61538 10.5H0C0 16.299 4.70101 21 10.5 21V19.3846ZM14.9418 18.1966C13.6358 18.952 12.1196 19.3846 10.5 19.3846V21C12.4112 21 14.2054 20.4887 15.7505 19.5948L14.9418 18.1966ZM19.3846 10.5C19.3846 12.1196 18.952 13.6358 18.1966 14.9418L19.5948 15.7505C20.4887 14.2054 21 12.4112 21 10.5H19.3846ZM4.24921 4.1862C5.85531 2.59602 8.06234 1.61538 10.5 1.61538V0C7.61968 0 5.00891 1.16083 3.11266 3.03828L4.24921 4.1862Z" fill="#87DBC1"/>
</svg>
