<svg width="21" height="21" viewBox="0 0 21 21" fill="none" xmlns="http://www.w3.org/2000/svg">
<path d="M10.4439 1.41809e-07C8.18925 -9.62563e-06 6.42228 -1.94304e-05 5.04362 0.185337C3.63248 0.37506 2.51897 0.770973 1.64497 1.64497C0.770973 2.51897 0.37506 3.63248 0.185337 5.04362C-1.94304e-05 6.42228 -9.62563e-06 8.18925 1.41809e-07 10.4439V10.5561C-9.62563e-06 12.8108 -1.94304e-05 14.5777 0.185337 15.9564C0.37506 17.3675 0.770973 18.4811 1.64497 19.3551C2.51897 20.2291 3.63248 20.6249 5.04362 20.8147C6.42228 21 8.18925 21 10.4439 21H10.5561C12.8108 21 14.5777 21 15.9564 20.8147C17.3675 20.6249 18.4811 20.2291 19.3551 19.3551C20.2291 18.4811 20.6249 17.3675 20.8147 15.9564C21 14.5777 21 12.8108 21 10.5561V9.03488C21 8.63031 20.672 8.30232 20.2674 8.30232C19.8629 8.30232 19.5349 8.63031 19.5349 9.03488V10.5C19.5349 12.8229 19.5333 14.4914 19.3626 15.7611C19.1948 17.0098 18.8755 17.7626 18.319 18.319C17.7626 18.8755 17.0098 19.1948 15.7611 19.3626C14.4914 19.5333 12.8229 19.5349 10.5 19.5349C8.17709 19.5349 6.50859 19.5333 5.23884 19.3626C3.99017 19.1948 3.23737 18.8755 2.68097 18.319C2.12456 17.7626 1.80527 17.0098 1.63738 15.7611C1.46667 14.4914 1.46512 12.8229 1.46512 10.5C1.46512 8.17709 1.46667 6.50859 1.63738 5.23884C1.80527 3.99017 2.12456 3.23737 2.68097 2.68097C3.23737 2.12456 3.99017 1.80527 5.23884 1.63738C6.50859 1.46667 8.17709 1.46512 10.5 1.46512H11.9651C12.3697 1.46512 12.6977 1.13714 12.6977 0.732558C12.6977 0.327981 12.3697 1.41809e-07 11.9651 1.41809e-07H10.4439Z" fill="#87DBC1"/>
<path fill-rule="evenodd" clip-rule="evenodd" d="M17.3372 0C15.3143 0 13.6744 1.63988 13.6744 3.66279C13.6744 5.6857 15.3143 7.32558 17.3372 7.32558C19.3602 7.32558 21 5.6857 21 3.66279C21 1.63988 19.3602 0 17.3372 0ZM15.1396 3.66279C15.1396 2.44905 16.1235 1.46512 17.3372 1.46512C18.5509 1.46512 19.5349 2.44905 19.5349 3.66279C19.5349 4.87653 18.5509 5.86046 17.3372 5.86046C16.1235 5.86046 15.1396 4.87653 15.1396 3.66279Z" fill="#87DBC1"/>
</svg>
