<svg width="21" height="21" viewBox="0 0 21 21" fill="none" xmlns="http://www.w3.org/2000/svg">
<path d="M10.5 6.38329C9.88858 6.38329 9.39288 6.87578 9.39288 7.48329C9.39288 7.8883 9.06241 8.21663 8.65478 8.21663C8.24715 8.21663 7.91669 7.8883 7.91669 7.48329C7.91669 6.06576 9.07333 4.91663 10.5 4.91663C11.9267 4.91663 13.0834 6.06576 13.0834 7.48329C13.0834 8.42523 12.5722 9.24779 11.8141 9.69346C11.6204 9.80727 11.4606 9.93155 11.3565 10.0535C11.2553 10.1718 11.2381 10.249 11.2381 10.2944V11.5166C11.2381 11.9216 10.9076 12.25 10.5 12.25C10.0924 12.25 9.76192 11.9216 9.76192 11.5166V10.2944C9.76192 9.79975 9.97991 9.39837 10.231 9.10445C10.479 8.81405 10.7883 8.59229 11.0624 8.43114C11.3901 8.23852 11.6072 7.8857 11.6072 7.48329C11.6072 6.87578 11.1115 6.38329 10.5 6.38329Z" fill="#87DBC1"/>
<path d="M10.5 15.4166C11.0523 15.4166 11.5 14.9689 11.5 14.4166C11.5 13.8643 11.0523 13.4166 10.5 13.4166C9.9477 13.4166 9.5 13.8643 9.5 14.4166C9.5 14.9689 9.9477 15.4166 10.5 15.4166Z" fill="#87DBC1"/>
<path fill-rule="evenodd" clip-rule="evenodd" d="M10.4439 1.4181e-07H10.5561C12.8108 -9.62563e-06 14.5777 -1.94304e-05 15.9564 0.185337C17.3675 0.37506 18.4811 0.770974 19.3551 1.64497C20.2291 2.51897 20.6249 3.63248 20.8147 5.04362C21 6.42228 21 8.18925 21 10.4439V10.5561C21 12.8108 21 14.5777 20.8147 15.9564C20.6249 17.3675 20.2291 18.4811 19.3551 19.3551C18.4811 20.2291 17.3675 20.6249 15.9564 20.8147C14.5777 21 12.8108 21 10.5561 21H10.4439C8.18925 21 6.42228 21 5.04362 20.8147C3.63248 20.6249 2.51897 20.2291 1.64497 19.3551C0.770974 18.4811 0.37506 17.3675 0.185337 15.9564C-1.94304e-05 14.5777 -9.62563e-06 12.8108 1.4181e-07 10.5561V10.4439C-9.62563e-06 8.18926 -1.94304e-05 6.42228 0.185337 5.04362C0.37506 3.63248 0.770974 2.51897 1.64497 1.64497C2.51897 0.770974 3.63248 0.37506 5.04362 0.185337C6.42228 -1.94304e-05 8.18926 -9.62563e-06 10.4439 1.4181e-07ZM5.23885 1.63738C3.99017 1.80527 3.23737 2.12456 2.68097 2.68097C2.12456 3.23737 1.80527 3.99017 1.63738 5.23885C1.46667 6.50859 1.46512 8.17708 1.46512 10.5C1.46512 12.8229 1.46667 14.4914 1.63738 15.7611C1.80527 17.0098 2.12456 17.7626 2.68097 18.319C3.23737 18.8755 3.99017 19.1948 5.23885 19.3626C6.50859 19.5333 8.17708 19.5349 10.5 19.5349C12.8229 19.5349 14.4914 19.5333 15.7611 19.3626C17.0098 19.1948 17.7626 18.8755 18.319 18.319C18.8755 17.7626 19.1948 17.0098 19.3626 15.7611C19.5333 14.4914 19.5349 12.8229 19.5349 10.5C19.5349 8.17708 19.5333 6.50859 19.3626 5.23885C19.1948 3.99017 18.8755 3.23737 18.319 2.68097C17.7626 2.12456 17.0098 1.80527 15.7611 1.63738C14.4914 1.46667 12.8229 1.46512 10.5 1.46512C8.17708 1.46512 6.50859 1.46667 5.23885 1.63738Z" fill="#87DBC1"/>
</svg>
