<svg width="16" height="21" viewBox="0 0 16 21" fill="none" xmlns="http://www.w3.org/2000/svg">
<path d="M14.4375 21C15.1613 21 15.75 20.4113 15.75 19.6875V1.3125C15.75 0.588656 15.1613 0 14.4375 0H5.90625C5.36878 0 4.70269 0.275953 4.32206 0.65625L0.65625 4.32173C0.275953 4.70203 0 5.36812 0 5.90625V19.6875C0 20.4113 0.588656 21 1.3125 21H14.4375ZM14.4375 1.3125V19.6875H1.3125V5.90625H4.59375C5.31759 5.90625 5.90625 5.31759 5.90625 4.59375V1.3125H14.4375ZM4.59375 2.24044V4.59375H2.24044L4.59375 2.24044Z" fill="#87DBC1"/>
<path d="M7.875 5.25H11.8125C11.9865 5.25 12.1535 5.18086 12.2765 5.05779C12.3996 4.93472 12.4688 4.7678 12.4688 4.59375C12.4688 4.4197 12.3996 4.25278 12.2765 4.12971C12.1535 4.00664 11.9865 3.9375 11.8125 3.9375H7.875C7.70095 3.9375 7.53403 4.00664 7.41096 4.12971C7.28789 4.25278 7.21875 4.4197 7.21875 4.59375C7.21875 4.7678 7.28789 4.93472 7.41096 5.05779C7.53403 5.18086 7.70095 5.25 7.875 5.25ZM11.8125 7.21875H3.9375C3.76345 7.21875 3.59653 7.28789 3.47346 7.41096C3.35039 7.53403 3.28125 7.70095 3.28125 7.875C3.28125 8.04905 3.35039 8.21597 3.47346 8.33904C3.59653 8.46211 3.76345 8.53125 3.9375 8.53125H11.8125C11.9865 8.53125 12.1535 8.46211 12.2765 8.33904C12.3996 8.21597 12.4688 8.04905 12.4688 7.875C12.4688 7.70095 12.3996 7.53403 12.2765 7.41096C12.1535 7.28789 11.9865 7.21875 11.8125 7.21875ZM11.8125 10.5H3.9375C3.76345 10.5 3.59653 10.5691 3.47346 10.6922C3.35039 10.8153 3.28125 10.9822 3.28125 11.1562C3.28125 11.3303 3.35039 11.4972 3.47346 11.6203C3.59653 11.7434 3.76345 11.8125 3.9375 11.8125H11.8125C11.9865 11.8125 12.1535 11.7434 12.2765 11.6203C12.3996 11.4972 12.4688 11.3303 12.4688 11.1562C12.4688 10.9822 12.3996 10.8153 12.2765 10.6922C12.1535 10.5691 11.9865 10.5 11.8125 10.5ZM11.8125 13.7812H3.9375C3.76345 13.7812 3.59653 13.8504 3.47346 13.9735C3.35039 14.0965 3.28125 14.2635 3.28125 14.4375C3.28125 14.6115 3.35039 14.7785 3.47346 14.9015C3.59653 15.0246 3.76345 15.0938 3.9375 15.0938H11.8125C11.9865 15.0938 12.1535 15.0246 12.2765 14.9015C12.3996 14.7785 12.4688 14.6115 12.4688 14.4375C12.4688 14.2635 12.3996 14.0965 12.2765 13.9735C12.1535 13.8504 11.9865 13.7812 11.8125 13.7812ZM11.8125 17.0625H3.9375C3.76345 17.0625 3.59653 17.1316 3.47346 17.2547C3.35039 17.3778 3.28125 17.5447 3.28125 17.7188C3.28125 17.8928 3.35039 18.0597 3.47346 18.1828C3.59653 18.3059 3.76345 18.375 3.9375 18.375H11.8125C11.9865 18.375 12.1535 18.3059 12.2765 18.1828C12.3996 18.0597 12.4688 17.8928 12.4688 17.7188C12.4688 17.5447 12.3996 17.3778 12.2765 17.2547C12.1535 17.1316 11.9865 17.0625 11.8125 17.0625Z" fill="#87DBC1"/>
</svg>
