<svg width="25" height="25" viewBox="0 0 25 25" fill="none" xmlns="http://www.w3.org/2000/svg">
<path d="M12.5 0C11.4736 0 10.484 0.124643 9.53929 0.335693C9.34229 0.379847 9.16443 0.48167 9.0303 0.627088C8.89617 0.772507 8.81239 0.954341 8.79053 1.14746L8.58332 2.96143C8.51555 3.55585 8.15797 4.08178 7.61845 4.3811C7.08001 4.67983 6.42646 4.71292 5.85652 4.47266H5.85525L4.12001 3.73901C3.93493 3.6608 3.72912 3.6397 3.53101 3.67862C3.3329 3.71754 3.15226 3.81457 3.01404 3.9563C1.66511 5.33724 0.629825 7.00941 0.0418876 8.87573C-0.0166768 9.06149 -0.0137668 9.26012 0.0502161 9.44422C0.114199 9.62832 0.236101 9.78881 0.399105 9.90356L1.93857 10.9875C2.44128 11.3424 2.73691 11.9018 2.73691 12.5C2.73691 13.0986 2.44128 13.6583 1.93857 14.0125L0.399105 15.0952C0.236101 15.21 0.114199 15.3705 0.0502161 15.5546C-0.0137668 15.7387 -0.0166768 15.9373 0.0418876 16.123C0.629762 17.9892 1.66422 19.6626 3.01404 21.0437C3.15241 21.1852 3.33312 21.282 3.53122 21.3207C3.72932 21.3594 3.93505 21.3381 4.12001 21.2598L5.85525 20.5261C6.42546 20.2853 7.07964 20.32 7.61845 20.6189C8.15797 20.9182 8.51555 21.4441 8.58332 22.0386L8.79053 23.8525C8.81255 24.0453 8.89626 24.2267 9.03013 24.3719C9.16399 24.517 9.34144 24.6188 9.53802 24.6631C10.4832 24.8749 11.4736 25 12.5 25C13.5264 25 14.516 24.8754 15.4607 24.6643C15.6577 24.6202 15.8356 24.5183 15.9697 24.3729C16.1038 24.2275 16.1876 24.0457 16.2095 23.8525L16.4167 22.0386C16.4844 21.4441 16.842 20.9182 17.3815 20.6189C17.92 20.3202 18.5735 20.2859 19.1435 20.5261L20.88 21.2598C21.0649 21.3381 21.2707 21.3594 21.4688 21.3207C21.6669 21.282 21.8476 21.1852 21.986 21.0437C23.3349 19.6628 24.3702 17.9894 24.9581 16.123C25.0167 15.9373 25.0138 15.7387 24.9498 15.5546C24.8858 15.3705 24.7639 15.21 24.6009 15.0952L23.0614 14.0125C22.5587 13.6583 22.2631 13.0986 22.2631 12.5C22.2631 11.9014 22.5587 11.3417 23.0614 10.9875L24.6009 9.90479C24.7639 9.79003 24.8858 9.62954 24.9498 9.44544C25.0138 9.26134 25.0167 9.06271 24.9581 8.87695C24.3702 7.01064 23.3349 5.33724 21.986 3.9563C21.8476 3.81477 21.6669 3.71798 21.4688 3.67928C21.2707 3.64058 21.0649 3.66188 20.88 3.74023L19.1435 4.47388C18.5735 4.71414 17.92 4.67983 17.3815 4.3811C16.842 4.08178 16.4844 3.55585 16.4167 2.96143L16.2095 1.14746C16.1874 0.954721 16.1037 0.773276 15.9699 0.628115C15.836 0.482954 15.6586 0.381217 15.462 0.336914C14.5168 0.125097 13.5264 0 12.5 0ZM12.5 1.875C13.1341 1.875 13.7431 1.9843 14.3535 2.0874L14.4755 3.16528C14.6108 4.35211 15.3293 5.40771 16.4052 6.00464C17.4819 6.60196 18.7927 6.67063 19.9304 6.19019L20.9626 5.75439C21.7553 6.66838 22.3828 7.70074 22.8212 8.83179L21.9059 9.47632C20.9038 10.1822 20.3105 11.3061 20.3105 12.5C20.3105 13.6939 20.9038 14.8178 21.9059 15.5237L22.8212 16.1682C22.3828 17.2993 21.7553 18.3316 20.9626 19.2456L19.9304 18.8098C18.7927 18.3294 17.4819 18.398 16.4052 18.9954C15.3293 19.5923 14.6108 20.6479 14.4755 21.8347L14.3535 22.9126C13.7432 23.0154 13.1338 23.125 12.5 23.125C11.8659 23.125 11.2569 23.0157 10.6465 22.9126L10.5245 21.8347C10.3892 20.6479 9.67071 19.5923 8.59476 18.9954C7.51811 18.398 6.2073 18.3294 5.06963 18.8098L4.03738 19.2456C3.24457 18.3318 2.61711 17.2994 2.17884 16.1682L3.09413 15.5237C4.09623 14.8178 4.68953 13.6939 4.68953 12.5C4.68953 11.3061 4.09575 10.1815 3.09413 9.4751L2.17884 8.83057C2.61736 7.69908 3.24553 6.6674 4.03865 5.75317L5.06963 6.18896C6.2073 6.66941 7.51811 6.60196 8.59476 6.00464C9.67071 5.40771 10.3892 4.35211 10.5245 3.16528L10.6465 2.0874C11.2568 1.98459 11.8662 1.875 12.5 1.875ZM12.5 7.5C9.63583 7.5 7.29302 9.74968 7.29302 12.5C7.29302 15.2503 9.63583 17.5 12.5 17.5C15.3642 17.5 17.707 15.2503 17.707 12.5C17.707 9.74968 15.3642 7.5 12.5 7.5ZM12.5 9.375C14.3089 9.375 15.7544 10.763 15.7544 12.5C15.7544 14.237 14.3089 15.625 12.5 15.625C10.6911 15.625 9.24564 14.237 9.24564 12.5C9.24564 10.763 10.6911 9.375 12.5 9.375Z" fill="#6DD5B3"/>
</svg>
