<svg width="23" height="25" viewBox="0 0 23 25" fill="none" xmlns="http://www.w3.org/2000/svg">
<path d="M21.2308 5.76923V2.86538C21.2212 2.34192 20.8279 1.92288 20.3462 1.92308C19.8479 1.93212 19.4506 2.37827 19.4589 2.92C19.4592 2.94019 19.4601 2.96058 19.4615 2.98077V7.69231C19.4615 8.75442 20.2536 9.61538 21.2308 9.61538V20.1923C21.2308 20.7233 20.8346 21.1538 20.3462 21.1538C19.8577 21.1538 19.4615 20.7233 19.4615 20.1923V16.3462C19.4615 14.7531 18.2733 13.4615 16.8077 13.4615H14.1538V1.92308C14.1538 0.860962 13.3618 0 12.3846 0H1.76923C0.792085 0 0 0.860962 0 1.92308V23.0769C0 24.139 0.792085 25 1.76923 25H12.3846C13.3618 25 14.1538 24.139 14.1538 23.0769V15.3846H16.8077C17.2962 15.3846 17.6923 15.8152 17.6923 16.3462V20.1923C17.6923 21.7854 18.8805 23.0769 20.3462 23.0769C21.8118 23.0769 23 21.7854 23 20.1923V7.69231C23 6.63019 22.2079 5.76923 21.2308 5.76923ZM10.9699 12.3067L6.36888 18.9748L6.33986 18.961C6.25759 19.1123 6.13339 19.2308 5.96018 19.2308C5.69905 19.2308 5.48745 19.0008 5.48745 18.7169C5.48745 18.6631 5.52584 18.6279 5.53999 18.579L5.50868 18.564L6.88266 14.0938C6.9782 13.7829 6.76518 13.4615 6.46353 13.4615H3.5374C3.17329 13.4615 2.96558 13.0098 3.18391 12.6933L7.78497 6.02519L7.81398 6.03904C7.89625 5.88769 8.02045 5.76923 8.19366 5.76923C8.4548 5.76923 8.6664 5.99923 8.6664 6.28308C8.6664 6.33692 8.62801 6.37212 8.61385 6.42096L8.64499 6.43596L7.27136 10.906C7.17565 11.2171 7.38866 11.5385 7.69032 11.5385H10.6164C10.9806 11.5385 11.1883 11.9902 10.9699 12.3067Z" fill="#C7C7C7"/>
</svg>
